<?xml version="1.0" encoding="utf-8"?>
<!-- Generator: Adobe Illustrator 18.1.1, SVG Export Plug-In . SVG Version: 6.00 Build 0)  -->
<!DOCTYPE svg PUBLIC "-//W3C//DTD SVG 1.1//EN" "http://www.w3.org/Graphics/SVG/1.1/DTD/svg11.dtd">
<svg version="1.1" xmlns="http://www.w3.org/2000/svg" xmlns:xlink="http://www.w3.org/1999/xlink" x="0px" y="0px"
	 viewBox="0 0 386 109" enable-background="new 0 0 386 109" xml:space="preserve">
<g id="Pasteboard" display="none">
	<rect x="-253.7" y="-73.7" display="inline" fill="none" width="386" height="61.7"/>
	<text transform="matrix(0.7 0 0 0.7 -189.6514 -16.8662)" display="inline" font-family="'CTMercuriusStd-Medium'" font-size="80">fcc</text>
	
		<text transform="matrix(1 0 0 1 -97.4209 -16.8662)" display="inline" fill="#DD0031" font-family="'CTMercuriusStd-MediumItalic'" font-size="80">WISE</text>
</g>
<g id="Background_copy" display="none">
	<rect fill="#D01F3C" stroke="#FFFFFF" stroke-width="1.5" stroke-miterlimit="10" width="386" height="109"/>
</g>
<g id="Background" display="none">
	<rect display="inline" fill="#7FB5CF" width="386" height="109"/>
</g>
<g id="Underline">
	<line fill="none" stroke="#FFFFFF" stroke-width="2" stroke-miterlimit="10" x1="177.7" y1="73" x2="312.4" y2="73"/>
	<line fill="none" stroke="#FFFFFF" stroke-width="2" stroke-miterlimit="10" x1="66" y1="73" x2="173.3" y2="73"/>
</g>
<g id="Logo_With_Stroke">
	<g>
		<path fill-rule="evenodd" clip-rule="evenodd" d="M166.1,66.3c3.5-1,6-2.3,9.3-3.3c-0.7,5.4-1.7,12.2-2.4,17.7
			c1.1,0.1,2,0.2,3,0.4c0.6-5.6,1-12.4,1.6-18c3,2,5.1,4.1,8.2,6.1c-2.3-10.5-4.2-15.1-6.5-25.5C174.3,53.2,171.1,56.9,166.1,66.3z"
			/>
	</g>
	<path fill="none" stroke="#FFFFFF" stroke-width="1.4811" stroke-miterlimit="10" d="M177.7,73"/>
	<path fill="none" stroke="#FFFFFF" stroke-width="1.4811" stroke-miterlimit="10" d="M173.3,73"/>
	<path fill="#FFFFFF" d="M76.8,58.1c0,3.1,0.1,6.3,0.6,9.4c-1.1,0.2-2.2,0.3-3.4,0.3c-3.8,0-5.5-1.8-5.5-5.6c0-4.6,0.3-9.2,0.3-13.8
		c0-6.4-0.4-10.2-0.4-15.4c0-1.8,0.8-2.9,2.7-2.9c1.7,0,3.3,0.1,4.9,0.2c1.6,0.1,3.3,0.2,4.9,0.2c3.4,0,6.6-0.2,9.9-0.7v0.8
		c0,3.3-1,4.7-4.4,4.7c-1.1,0-2.2-0.2-3.4-0.3c-1.1-0.2-2.2-0.3-3.4-0.3c-2.1,0-2.9,0.7-2.9,2.8c0,2.7-0.2,8-0.2,8.9
		c0.8,0.1,1.7,0.1,3.8,0.1c1.6,0,5.8-0.3,9.2-1.2c0.1,0.6,0.1,1.2,0.1,1.8c0,3.9-2.1,4-5.4,4c-2.5,0-5.1-0.3-7.6-0.6V58.1z"/>
	<path fill="#FFFFFF" d="M115.2,38.7c-1.3-2.4-3.2-4.7-6.2-4.7c-6.3,0-7.4,11.2-7.4,15.6c0,4.6,0.7,13.8,7.2,13.8
		c2.9,0,5.1-1.7,6.4-4.3c1,0.6,1.8,1.3,1.8,2.6c0,4.4-7.2,6.6-10.7,6.6c-9.9,0-13-8.7-13-17.2c0-10.3,3.9-21.3,16-21.3
		c3,0,8.4,1.1,8.4,5C117.6,36.6,116.5,37.7,115.2,38.7z"/>
	<path fill="#FFFFFF" d="M142.1,38.7c-1.3-2.4-3.2-4.7-6.2-4.7c-6.3,0-7.4,11.2-7.4,15.6c0,4.6,0.7,13.8,7.2,13.8
		c2.9,0,5.1-1.7,6.4-4.3c1,0.6,1.8,1.3,1.8,2.6c0,4.4-7.2,6.6-10.7,6.6c-9.9,0-13-8.7-13-17.2c0-10.3,3.9-21.3,16-21.3
		c3,0,8.4,1.1,8.4,5C144.4,36.6,143.4,37.7,142.1,38.7z"/>
	<path fill="#FFFFFF" stroke="#FFFFFF" stroke-width="1.5" stroke-miterlimit="10" d="M212.6,31.3c-4.6,8.6-9,17.2-13,26
		c-1.5,3.3-2.9,6.6-4.3,9.9c-1.8,0.4-3.4,0.8-5.3,0.8c-1,0-2-0.1-2.9-0.6c-2.3-1.5-3-9-3.3-11.4c-1-7-2.2-13.8-3.2-20.7
		c-5.9,10.4-11.4,21-15.7,32.2c-1.5,0.2-3,0.7-4.7,0.6c-2.2-0.1-4.1-0.9-5-2.9c-1.2-2.6-1.3-10.1-1.4-13c-0.6-8.6-1.6-17.4-2.7-25.9
		c-0.6-4-1.2-7.6-2.6-11.4c2-0.6,3.5-1,5.7-1c5.6,0,7.8,1.8,8.3,7.1c1,10.7,1.3,21.5,2.7,32.2c4.5-9.5,8.9-19.3,14.4-28.2
		c-0.6-3.4-1.4-6.6-2.7-9.9c2.2-1,4.2-1.4,6.6-1.4c5.1,0,7,2.5,7.6,7.2c0.4,3,0.6,6.1,0.8,9.1c0.6,7.8,2.1,15.7,3.1,23.5
		c4-7.2,7.7-16.1,10.9-23.8c1.4-3.4,3-8.2,3-12c0-1.1-0.2-2.2-0.6-3.3c1.2-0.5,2.5-0.8,3.8-0.8c3,0,5.8,1.4,5.8,4.8
		C217.7,22.1,214.3,28.2,212.6,31.3z"/>
	<path fill="#FFFFFF" stroke="#FFFFFF" stroke-width="1.5" stroke-miterlimit="10" d="M235.3,28.3c-2.2,11.1-5.8,28.2-5.2,39.3
		c-1.4,0.4-2.9,0.6-4.4,0.6c-4.5,0-7.5-1.4-7.5-6.4c0-2.7,0.7-5.5,1.2-8.2c2.4-12.5,5.3-26.5,5.1-39.2c1.3-0.2,2.6-0.4,3.9-0.4
		c4.6,0,8,1.4,8,6.6C236.4,23.2,235.8,25.8,235.3,28.3z"/>
	<path fill="#FFFFFF" stroke="#FFFFFF" stroke-width="1.5" stroke-miterlimit="10" d="M271.2,27.4c-1.5-3.8-5-8.3-9.5-8.3
		c-3.5,0-6.4,2.5-6.4,6.1c0,9.6,18.1,12.5,18.1,26.5c0,10.7-9.1,17-19.2,17c-5.5,0-15.6-3.1-15.6-10.1c0-3.7,3.6-5,6.6-5.8
		c1.3,4.8,4.9,10,10.4,10c4.3,0,7.5-3.5,7.5-7.8c0-10.6-18-12.5-18-26.4c0-10.1,8.2-15.1,17.4-15.1c4.6,0,14.2,2.2,14.2,8.2
		C276.8,25,273.8,26.3,271.2,27.4z"/>
	<path fill="#FFFFFF" stroke="#FFFFFF" stroke-width="1.5" stroke-miterlimit="10" d="M308.4,21.9c-3.7,0-7.9-0.2-11.5-1
		c0.1,0.4,0.1,0.9,0.1,1.3c0,5.1-1.1,10.5-2.2,15.5c0.7,0.1,1.4,0.1,2.2,0.1c4.9,0,9.3-0.3,14-1.5c0.2,0.8,0.2,1.6,0.2,2.4
		c0,4.9-3.4,5.8-7.7,5.8c-3.3,0-6.6-0.5-9.8-1.1c-0.8,4.5-2.2,11.4-2.2,15.8c0,3.1,2.7,3.2,5.2,3.2c4.3,0,9.5-1.4,13.3-3.4
		c0.2,1,0.5,2.1,0.5,3.1c0,6.8-8.6,6.2-13.4,6.2c-4.1,0-8.2-0.2-12.2-0.3c-3.8-0.1-5.8-2-5.8-5.8c0-4.1,1.1-8.1,1.9-12.1
		c1.8-8.3,3.8-20,3.8-28.5c0-2.5-0.2-4.7-0.9-7.1c1.7-0.5,3.4-0.9,5.1-0.9c2.2,0,4.4,0.3,5.9,1.9c1.3,0.1,2.6,0.1,3.8,0.1
		c5.6,0,11.4-0.2,16.8-1.9c0.1,0.7,0.2,1.4,0.2,2.1C316,20.8,313,21.9,308.4,21.9z"/>
	<g>
		<path fill-rule="evenodd" clip-rule="evenodd" fill="#FFFFFF" d="M173.6,66.2c-3.8,1.1-6.8,1.6-10.8,2.4
			c6-11.4,11.6-21.8,17.7-33.3c2.8,12.6,5.6,25.2,8.4,38c-3.4-2.2-6.6-4.3-9.9-6.4c-0.1,0.9-0.2,1.7-0.3,2.5
			c-0.4,4-0.9,8.1-1.3,12.1c-0.1,1.1-0.3,1.2-1.3,1.2c-1.2-0.1-2.4-0.3-3.5-0.4c-0.8-0.1-1-0.4-0.9-1.2c0.3-2.2,0.6-4.4,0.9-6.6
			C172.9,71.6,173.2,69,173.6,66.2z M166.1,66.3c3.5-1,6-2.3,9.3-3.3c-0.7,5.4-1.7,12.2-2.4,17.7c1.1,0.1,2,0.2,3,0.4
			c0.6-5.6,1-12.4,1.6-18c3,2,5.1,4.1,8.2,6.1c-2.3-10.5-4.2-15.1-6.5-25.5C174.3,53.2,171.1,56.9,166.1,66.3z"/>
	</g>
</g>
<g id="Logo" display="none">
	<g display="inline">
		<path fill-rule="evenodd" clip-rule="evenodd" d="M166.1,66.3c3.5-1,6-2.3,9.3-3.3c-0.7,5.4-1.7,12.2-2.4,17.7
			c1.1,0.1,2,0.2,3,0.4c0.6-5.6,1-12.4,1.6-18c3,2,5.1,4.1,8.2,6.1c-2.3-10.5-4.2-15.1-6.5-25.5C174.3,53.2,171.1,56.9,166.1,66.3z"
			/>
	</g>
	<path display="inline" fill="none" stroke="#FFFFFF" stroke-width="1.4811" stroke-miterlimit="10" d="M177.7,73"/>
	<path display="inline" fill="none" stroke="#FFFFFF" stroke-width="1.4811" stroke-miterlimit="10" d="M173.3,73"/>
	<g display="inline">
		<path d="M76.8,58.1c0,3.1,0.1,6.3,0.6,9.4c-1.1,0.2-2.2,0.3-3.4,0.3c-3.8,0-5.5-1.8-5.5-5.6c0-4.6,0.3-9.2,0.3-13.8
			c0-6.4-0.4-10.2-0.4-15.4c0-1.8,0.8-2.9,2.7-2.9c1.7,0,3.3,0.1,4.9,0.2c1.6,0.1,3.3,0.2,4.9,0.2c3.4,0,6.6-0.2,9.9-0.7v0.8
			c0,3.3-1,4.7-4.4,4.7c-1.1,0-2.2-0.2-3.4-0.3c-1.1-0.2-2.2-0.3-3.4-0.3c-2.1,0-2.9,0.7-2.9,2.8c0,2.7-0.2,8-0.2,8.9
			c0.8,0.1,1.7,0.1,3.8,0.1c1.6,0,5.8-0.3,9.2-1.2c0.1,0.6,0.1,1.2,0.1,1.8c0,3.9-2.1,4-5.4,4c-2.5,0-5.1-0.3-7.6-0.6V58.1z"/>
		<path d="M115.2,38.7c-1.3-2.4-3.2-4.7-6.2-4.7c-6.3,0-7.4,11.2-7.4,15.6c0,4.6,0.7,13.8,7.2,13.8c2.9,0,5.1-1.7,6.4-4.3
			c1,0.6,1.8,1.3,1.8,2.6c0,4.4-7.2,6.6-10.7,6.6c-9.9,0-13-8.7-13-17.2c0-10.3,3.9-21.3,16-21.3c3,0,8.4,1.1,8.4,5
			C117.6,36.6,116.5,37.7,115.2,38.7z"/>
		<path d="M142.1,38.7c-1.3-2.4-3.2-4.7-6.2-4.7c-6.3,0-7.4,11.2-7.4,15.6c0,4.6,0.7,13.8,7.2,13.8c2.9,0,5.1-1.7,6.4-4.3
			c1,0.6,1.8,1.3,1.8,2.6c0,4.4-7.2,6.6-10.7,6.6c-9.9,0-13-8.7-13-17.2c0-10.3,3.9-21.3,16-21.3c3,0,8.4,1.1,8.4,5
			C144.4,36.6,143.4,37.7,142.1,38.7z"/>
		<path fill="#DD0031" d="M212.6,31.3c-4.6,8.6-9,17.2-13,26c-1.5,3.3-2.9,6.6-4.3,9.9c-1.8,0.4-3.4,0.8-5.3,0.8c-1,0-2-0.1-2.9-0.6
			c-2.3-1.5-3-9-3.3-11.4c-1-7-2.2-13.8-3.2-20.7c-5.9,10.4-11.4,21-15.7,32.2c-1.5,0.2-3,0.7-4.7,0.6c-2.2-0.1-4.1-0.9-5-2.9
			c-1.2-2.6-1.3-10.1-1.4-13c-0.6-8.6-1.6-17.4-2.7-25.9c-0.6-4-1.2-7.6-2.6-11.4c2-0.6,3.5-1,5.7-1c5.6,0,7.8,1.8,8.3,7.1
			c1,10.7,1.3,21.5,2.7,32.2c4.5-9.5,8.9-19.3,14.4-28.2c-0.6-3.4-1.4-6.6-2.7-9.9c2.2-1,4.2-1.4,6.6-1.4c5.1,0,7,2.5,7.6,7.2
			c0.4,3,0.6,6.1,0.8,9.1c0.6,7.8,2.1,15.7,3.1,23.5c4-7.2,7.7-16.1,10.9-23.8c1.4-3.4,3-8.2,3-12c0-1.1-0.2-2.2-0.6-3.3
			c1.2-0.5,2.5-0.8,3.8-0.8c3,0,5.8,1.4,5.8,4.8C217.7,22.1,214.3,28.2,212.6,31.3z"/>
		<path fill="#DD0031" d="M235.3,28.3c-2.2,11.1-5.8,28.2-5.2,39.3c-1.4,0.4-2.9,0.6-4.4,0.6c-4.5,0-7.5-1.4-7.5-6.4
			c0-2.7,0.7-5.5,1.2-8.2c2.4-12.5,5.3-26.5,5.1-39.2c1.3-0.2,2.6-0.4,3.9-0.4c4.6,0,8,1.4,8,6.6C236.4,23.2,235.8,25.8,235.3,28.3z
			"/>
		<path fill="#DD0031" d="M271.2,27.4c-1.5-3.8-5-8.3-9.5-8.3c-3.5,0-6.4,2.5-6.4,6.1c0,9.6,18.1,12.5,18.1,26.5
			c0,10.7-9.1,17-19.2,17c-5.5,0-15.6-3.1-15.6-10.1c0-3.7,3.6-5,6.6-5.8c1.3,4.8,4.9,10,10.4,10c4.3,0,7.5-3.5,7.5-7.8
			c0-10.6-18-12.5-18-26.4c0-10.1,8.2-15.1,17.4-15.1c4.6,0,14.2,2.2,14.2,8.2C276.8,25,273.8,26.3,271.2,27.4z"/>
		<path fill="#DD0031" d="M308.4,21.9c-3.7,0-7.9-0.2-11.5-1c0.1,0.4,0.1,0.9,0.1,1.3c0,5.1-1.1,10.5-2.2,15.5
			c0.7,0.1,1.4,0.1,2.2,0.1c4.9,0,9.3-0.3,14-1.5c0.2,0.8,0.2,1.6,0.2,2.4c0,4.9-3.4,5.8-7.7,5.8c-3.3,0-6.6-0.5-9.8-1.1
			c-0.8,4.5-2.2,11.4-2.2,15.8c0,3.1,2.7,3.2,5.2,3.2c4.3,0,9.5-1.4,13.3-3.4c0.2,1,0.5,2.1,0.5,3.1c0,6.8-8.6,6.2-13.4,6.2
			c-4.1,0-8.2-0.2-12.2-0.3c-3.8-0.1-5.8-2-5.8-5.8c0-4.1,1.1-8.1,1.9-12.1c1.8-8.3,3.8-20,3.8-28.5c0-2.5-0.2-4.7-0.9-7.1
			c1.7-0.5,3.4-0.9,5.1-0.9c2.2,0,4.4,0.3,5.9,1.9c1.3,0.1,2.6,0.1,3.8,0.1c5.6,0,11.4-0.2,16.8-1.9c0.1,0.7,0.2,1.4,0.2,2.1
			C316,20.8,313,21.9,308.4,21.9z"/>
	</g>
	<g display="inline">
		<path fill-rule="evenodd" clip-rule="evenodd" fill="#FFFFFF" d="M173.6,66.2c-3.8,1.1-6.8,1.6-10.8,2.4
			c6-11.4,11.6-21.8,17.7-33.3c2.8,12.6,5.6,25.2,8.4,38c-3.4-2.2-6.6-4.3-9.9-6.4c-0.1,0.9-0.2,1.7-0.3,2.5
			c-0.4,4-0.9,8.1-1.3,12.1c-0.1,1.1-0.3,1.2-1.3,1.2c-1.2-0.1-2.4-0.3-3.5-0.4c-0.8-0.1-1-0.4-0.9-1.2c0.3-2.2,0.6-4.4,0.9-6.6
			C172.9,71.6,173.2,69,173.6,66.2z M166.1,66.3c3.5-1,6-2.3,9.3-3.3c-0.7,5.4-1.7,12.2-2.4,17.7c1.1,0.1,2,0.2,3,0.4
			c0.6-5.6,1-12.4,1.6-18c3,2,5.1,4.1,8.2,6.1c-2.3-10.5-4.2-15.1-6.5-25.5C174.3,53.2,171.1,56.9,166.1,66.3z"/>
	</g>
</g>
<g id="Tagline">
	<g>
		<path fill="#FFFFFF" d="M58.8,97.6c0.5,0.2,1.3,0.4,2.1,0.4c1.1,0,2-0.4,2-1.2c0-0.7-0.5-1.1-1.5-1.7c-1.2-0.9-1.8-1.8-1.8-2.8
			c0-2.3,2.1-3.8,5.3-3.8c1.3,0,2,0.2,2.4,0.4L66.4,91c-0.5-0.2-1-0.3-1.6-0.3c-1.1,0-1.8,0.5-1.8,1.3c0,0.4,0.2,0.8,1.5,1.6
			c1.3,0.9,1.8,1.9,1.8,2.7c0,2.5-2.3,3.9-5.2,3.9c-1.7,0-2.7-0.3-3-0.4L58.8,97.6z"/>
		<path fill="#FFFFFF" d="M74.5,88.6L72.6,96c-0.1,0.5-0.2,0.9-0.2,1.2c0,0.5,0.3,0.8,0.9,0.8c0.7,0,1.2-0.3,1.6-1.9l1.9-7.4h3.4
			l-1.8,7.1c-0.7,2.8-2.2,4.5-5.5,4.5c-2.8,0-3.9-1.1-3.9-2.8c0-0.5,0.1-1.2,0.3-1.9l1.7-6.9H74.5z"/>
		<path fill="#FFFFFF" d="M88.3,100c-0.5,0.1-1.2,0.2-2.1,0.2c-4.2,0-4.7-2.8-4.7-3.9c0-3,1.3-5.1,2.9-6.3c1.3-1,3.1-1.5,4.7-1.5
			c0.8,0,1.7,0.2,1.8,0.3L90.1,91c-0.3-0.1-0.7-0.2-1.4-0.2c-0.7,0-1.5,0.4-2.1,0.9c-0.9,0.9-1.6,2.3-1.6,4.1c0,1.3,0.5,2.1,1.8,2.1
			c0.5,0,1.2-0.1,1.5-0.2L88.3,100z"/>
		<path fill="#FFFFFF" d="M98.4,100c-0.5,0.1-1.2,0.2-2.1,0.2c-4.2,0-4.7-2.8-4.7-3.9c0-3,1.3-5.1,2.9-6.3c1.3-1,3.1-1.5,4.7-1.5
			c0.8,0,1.7,0.2,1.8,0.3l-0.9,2.2c-0.3-0.1-0.7-0.2-1.4-0.2c-0.7,0-1.5,0.4-2.1,0.9c-0.9,0.9-1.6,2.3-1.6,4.1
			c0,1.3,0.5,2.1,1.8,2.1c0.5,0,1.2-0.1,1.5-0.2L98.4,100z"/>
		<path fill="#FFFFFF" d="M109,95.2h-3.2l-0.7,2.7h3.7l-0.6,2.2h-7l2.9-11.5h6.7l-0.6,2.2H107l-0.6,2.2h3.2L109,95.2z"/>
		<path fill="#FFFFFF" d="M111.9,97.6c0.5,0.2,1.3,0.4,2.1,0.4c1.1,0,2-0.4,2-1.2c0-0.7-0.5-1.1-1.5-1.7c-1.2-0.9-1.8-1.8-1.8-2.8
			c0-2.3,2.1-3.8,5.3-3.8c1.3,0,2,0.2,2.4,0.4l-0.9,2.2c-0.5-0.2-1-0.3-1.6-0.3c-1.1,0-1.8,0.5-1.8,1.3c0,0.4,0.2,0.8,1.5,1.6
			c1.3,0.9,1.8,1.9,1.8,2.7c0,2.5-2.3,3.9-5.2,3.9c-1.7,0-2.7-0.3-3-0.4L111.9,97.6z"/>
		<path fill="#FFFFFF" d="M121.9,97.6c0.5,0.2,1.3,0.4,2.1,0.4c1.1,0,2-0.4,2-1.2c0-0.7-0.5-1.1-1.5-1.7c-1.2-0.9-1.8-1.8-1.8-2.8
			c0-2.3,2.1-3.8,5.3-3.8c1.3,0,2,0.2,2.4,0.4l-0.9,2.2c-0.5-0.2-1-0.3-1.6-0.3c-1.1,0-1.8,0.5-1.8,1.3c0,0.4,0.2,0.8,1.5,1.6
			c1.3,0.9,1.8,1.9,1.8,2.7c0,2.5-2.3,3.9-5.2,3.9c-1.7,0-2.7-0.3-3-0.4L121.9,97.6z"/>
		<path fill="#FFFFFF" d="M142,88.6l-2.9,11.5h-3.4l2.9-11.5H142z"/>
		<path fill="#FFFFFF" d="M143.3,97.6c0.5,0.2,1.3,0.4,2.1,0.4c1.1,0,2-0.4,2-1.2c0-0.7-0.5-1.1-1.5-1.7c-1.2-0.9-1.8-1.8-1.8-2.8
			c0-2.3,2.1-3.8,5.3-3.8c1.3,0,2,0.2,2.4,0.4l-0.9,2.2c-0.5-0.2-1-0.3-1.6-0.3c-1.1,0-1.8,0.5-1.8,1.3c0,0.4,0.2,0.8,1.5,1.6
			c1.3,0.9,1.8,1.9,1.8,2.7c0,2.5-2.3,3.9-5.2,3.9c-1.7,0-2.7-0.3-3-0.4L143.3,97.6z"/>
		<path fill="#FFFFFF" d="M161.1,88.6h3.4l-2,7.8c-0.7,2.9-2.3,3.8-5.2,3.8c-0.6,0-1.2-0.1-1.4-0.1l0.5-2.2c0.4,0.1,0.6,0.1,1.1,0.1
			c0.7,0,1.3-0.4,1.6-1.3L161.1,88.6z"/>
		<path fill="#FFFFFF" d="M171.2,88.6l-1.9,7.4c-0.1,0.5-0.2,0.9-0.2,1.2c0,0.5,0.3,0.8,0.9,0.8c0.7,0,1.2-0.3,1.6-1.9l1.9-7.4h3.4
			l-1.8,7.1c-0.7,2.8-2.2,4.5-5.5,4.5c-2.8,0-3.9-1.1-3.9-2.8c0-0.5,0.1-1.2,0.3-1.9l1.7-6.9H171.2z"/>
		<path fill="#FFFFFF" d="M178.1,97.6c0.5,0.2,1.3,0.4,2.1,0.4c1.1,0,2-0.4,2-1.2c0-0.7-0.5-1.1-1.5-1.7c-1.2-0.9-1.8-1.8-1.8-2.8
			c0-2.3,2.1-3.8,5.3-3.8c1.3,0,2,0.2,2.4,0.4l-0.9,2.2c-0.5-0.2-1-0.3-1.6-0.3c-1.1,0-1.8,0.5-1.8,1.3c0,0.4,0.2,0.8,1.5,1.6
			c1.3,0.9,1.8,1.9,1.8,2.7c0,2.5-2.3,3.9-5.2,3.9c-1.7,0-2.7-0.3-3-0.4L178.1,97.6z"/>
		<path fill="#FFFFFF" d="M191.2,91h-2.6l0.6-2.4h8.6l-0.6,2.4h-2.6l-2.3,9.1h-3.4L191.2,91z"/>
		<path fill="#FFFFFF" d="M204.8,97.8l-1.1,2.3h-3.2l6.1-11.5h4v11.5h-3.2l0.1-2.3H204.8z M207.5,96l0.1-2.4c0-0.6,0.2-2,0.2-2.8h0
			c-0.3,0.9-0.9,2.2-1.1,2.8l-1.1,2.4H207.5z"/>
		<path fill="#FFFFFF" d="M224.8,100c-0.5,0.1-1.2,0.2-2.1,0.2c-4.2,0-4.7-2.8-4.7-3.9c0-3,1.3-5.1,2.9-6.3c1.3-1,3.1-1.5,4.7-1.5
			c0.8,0,1.7,0.2,1.8,0.3l-0.9,2.2c-0.3-0.1-0.7-0.2-1.4-0.2c-0.7,0-1.5,0.4-2.1,0.9c-0.9,0.9-1.6,2.3-1.6,4.1
			c0,1.3,0.5,2.1,1.8,2.1c0.5,0,1.2-0.1,1.5-0.2L224.8,100z"/>
		<path fill="#FFFFFF" d="M230.6,88.6h3.4l-2.4,9.3h3.5l-0.6,2.2h-6.9L230.6,88.6z"/>
		<path fill="#FFFFFF" d="M243.3,88.6l-2.9,11.5H237l2.9-11.5H243.3z"/>
		<path fill="#FFFFFF" d="M251.5,100c-0.5,0.1-1.2,0.2-2.1,0.2c-4.2,0-4.7-2.8-4.7-3.9c0-3,1.3-5.1,2.9-6.3c1.3-1,3.1-1.5,4.7-1.5
			c0.8,0,1.7,0.2,1.8,0.3l-0.9,2.2c-0.3-0.1-0.7-0.2-1.4-0.2c-0.7,0-1.5,0.4-2.1,0.9c-0.9,0.9-1.6,2.3-1.6,4.1
			c0,1.3,0.5,2.1,1.8,2.1c0.5,0,1.2-0.1,1.5-0.2L251.5,100z"/>
		<path fill="#FFFFFF" d="M257.3,88.6h3.3l-1.4,5.3h0.1c0.4-0.7,0.8-1.2,1.2-1.8l2.5-3.5h3.6l-4.5,5.1l1.6,6.3h-3.5l-0.7-4.5l-0.9,1
			l-0.9,3.5h-3.3L257.3,88.6z"/>
		<path fill="#FFFFFF" d="M273.5,97.8l-1.1,2.3h-3.2l6.1-11.5h4v11.5h-3.2l0.1-2.3H273.5z M276.2,96l0.1-2.4c0-0.6,0.2-2,0.2-2.8h0
			c-0.3,0.9-0.9,2.2-1.1,2.8l-1.1,2.4H276.2z"/>
		<path fill="#FFFFFF" d="M282.8,100.1l0.7-11.5h3.5l-0.6,4.4c-0.2,1.3-0.4,2.7-0.6,4h0c0.4-1.4,1-2.5,1.6-3.8l2.3-4.7h3l-0.3,4.4
			c-0.1,1.3-0.2,2.7-0.4,4.1h0c0.4-1.4,0.9-2.7,1.4-3.9l1.8-4.6h3.3l-5.3,11.5h-3.6l0-2.7c0-1.4,0.1-2.9,0.3-4.1h0
			c-0.5,1.2-1.2,2.7-2.2,4.5l-1.4,2.4H282.8z"/>
		<path fill="#FFFFFF" d="M301.2,97.8l-1.1,2.3h-3.2l6.1-11.5h4v11.5h-3.2l0.1-2.3H301.2z M303.9,96l0.1-2.4c0-0.6,0.2-2,0.2-2.8h0
			c-0.3,0.9-0.9,2.2-1.1,2.8l-1.1,2.4H303.9z"/>
		<path fill="#FFFFFF" d="M310.9,100.1l1.1-4.2l-1.4-7.3h3.6l0.2,2.5c0.1,1.4,0,2.1,0,2.6h0c0.3-0.7,0.7-1.5,1.2-2.4l1.5-2.7h3.5
			l-5.2,7.3l-1,4.2H310.9z"/>
		<path fill="#FFFFFF" d="M321.2,100.2c-1.1,0-1.8-0.7-1.8-1.5c0-0.8,1-1.7,2-1.7c1.2,0,1.9,0.6,1.9,1.4
			C323.3,99.6,322.3,100.2,321.2,100.2L321.2,100.2z M320.5,96.1l1.5-7.5h3.8l-2.3,7.5H320.5z"/>
	</g>
</g>
<g id="v2">
</g>
</svg>
